<svg width="44" height="44" viewBox="0 0 44 44" fill="none" xmlns="http://www.w3.org/2000/svg">
<circle opacity="0.4" cx="22" cy="22" r="21.5" stroke="#EEF2F7"/>
<path fill-rule="evenodd" clip-rule="evenodd" d="M20.21 22.6032C20.1506 22.6032 18.8427 22.6032 18.2482 22.6032C17.9311 22.6032 17.832 22.4843 17.832 22.1871C17.832 21.3944 17.832 20.582 17.832 19.7893C17.832 19.4722 17.9509 19.3731 18.2482 19.3731H20.21C20.21 19.3137 20.21 18.1643 20.21 17.6293C20.21 16.8366 20.3487 16.0836 20.745 15.39C21.1612 14.6767 21.7557 14.2011 22.5087 13.9236C23.0041 13.7453 23.4995 13.666 24.0346 13.666H25.9766C26.254 13.666 26.3729 13.7849 26.3729 14.0623V16.3214C26.3729 16.5988 26.254 16.7177 25.9766 16.7177C25.4415 16.7177 24.9065 16.7177 24.3715 16.7376C23.8364 16.7376 23.559 16.9952 23.559 17.55C23.5392 18.1445 23.559 18.7192 23.559 19.3335H25.8577C26.1748 19.3335 26.2936 19.4524 26.2936 19.7695V22.1673C26.2936 22.4843 26.1946 22.5834 25.8577 22.5834C25.1443 22.5834 23.6184 22.5834 23.559 22.5834V29.0436C23.559 29.3805 23.4599 29.4993 23.1032 29.4993C22.2709 29.4993 21.4584 29.4993 20.6261 29.4993C20.3289 29.4993 20.21 29.3805 20.21 29.0832C20.21 27.0025 20.21 22.6627 20.21 22.6032Z" fill="white"/>
</svg>
