<svg width="44" height="44" viewBox="0 0 44 44" fill="none" xmlns="http://www.w3.org/2000/svg">
<circle opacity="0.4" cx="22" cy="22" r="21.5" stroke="white"/>
<path d="M24.0637 14.6782C25.0438 14.9455 26.0239 15.391 26.8257 16.1038L25.0438 17.8857C24.331 17.4403 23.6182 17.0839 22.7272 17.0839C22.6381 17.0839 22.4599 17.0839 22.3708 17.0839C20.3215 16.9948 18.6287 18.3312 18.005 20.2023C17.9159 20.6478 17.8268 21.0933 17.8268 21.5388C17.8268 21.9843 17.9159 22.4298 18.005 22.8753C18.6287 24.7463 20.3215 26.0828 22.3708 26.0828C23.3509 26.0828 24.2419 25.8155 25.0438 25.1918C25.6675 24.7463 26.113 24.2117 26.4693 23.499C26.5584 23.3208 26.8257 22.6971 26.8257 22.6971H25.9348H22.4599V20.2914H29.3205C29.4096 20.7369 29.4096 21.0933 29.4096 21.5388C29.4096 23.5881 28.5186 25.37 27.1821 26.6174C27.093 26.7065 27.0039 26.7956 26.9148 26.8847C26.7366 26.9738 26.6475 27.152 26.4693 27.2411C26.3802 27.3302 26.2912 27.3302 26.2021 27.4193L26.113 27.5084C25.7566 27.7757 25.3111 27.9539 24.8656 28.1321C24.7765 28.1321 24.7765 28.1321 24.6874 28.2212C24.4201 28.3103 24.0637 28.3994 23.7964 28.4885C23.6182 28.4885 23.5291 28.5776 23.3509 28.5776C23.0836 28.5776 22.8163 28.6667 22.549 28.6667C22.4599 28.6667 22.4599 28.6667 22.3708 28.6667C19.787 28.6667 17.5595 27.2411 16.3121 25.1918C15.6884 24.0335 15.332 22.8753 15.332 21.5388C15.332 20.2023 15.6884 19.044 16.3121 17.9748C17.5595 15.9256 19.787 14.5 22.3708 14.5C22.9945 14.5 23.6182 14.5891 24.0637 14.6782Z" fill="white"/>
</svg>
