<svg width="44" height="44" viewBox="0 0 44 44" fill="none" xmlns="http://www.w3.org/2000/svg">
<circle opacity="0.4" cx="22" cy="22" r="21.5" stroke="white"/>
<path d="M17.1554 18.1467C18.1624 18.1467 18.9787 17.3303 18.9787 16.3233C18.9787 15.3163 18.1624 14.5 17.1554 14.5C16.1484 14.5 15.332 15.3163 15.332 16.3233C15.332 17.3303 16.1484 18.1467 17.1554 18.1467Z" fill="white"/>
<path d="M20.7004 19.5283V29.6442H23.8412V24.6417C23.8412 23.3217 24.0895 22.0433 25.7262 22.0433C27.3404 22.0433 27.3604 23.5525 27.3604 24.725V29.645H30.5029V24.0975C30.5029 21.3725 29.9162 19.2783 26.7312 19.2783C25.202 19.2783 24.177 20.1175 23.7579 20.9117H23.7154V19.5283H20.7004ZM15.582 19.5283H18.7279V29.6442H15.582V19.5283Z" fill="white"/>
</svg>
