<svg width="24" height="24" viewBox="0 0 24 24" fill="none" xmlns="http://www.w3.org/2000/svg">
<path d="M21.336 3.028L2.40405 7.60744C2.19244 7.65896 2.03402 7.83493 2.00484 8.05078C1.97548 8.26645 2.08147 8.47824 2.27166 8.58422L9.06148 12.3802L13.3682 9.16124C13.5436 9.02903 13.7932 9.06393 13.9254 9.23935C14.0578 9.41476 14.0227 9.66422 13.8473 9.79661L9.46898 13.0658L11.1022 20.4777H11.1024C11.1496 20.6896 11.3217 20.8514 11.5365 20.8852H11.6185C11.8064 20.8841 11.9798 20.7834 12.0738 20.6206L21.9187 3.81148C22.0344 3.62757 22.026 3.39159 21.8974 3.21635C21.7689 3.04111 21.5464 2.96228 21.3363 3.0173L21.336 3.028Z" fill="white"/>
</svg>
